# xmcd
#
# Track frame offsets:
#	150
#	26209
#	47973
#	70973
#	89729
#	113314
#	139062
#	145913
#	171087
#	197053
#
# Disc length: 2885 seconds
#
# Revision: 1
# Processed by: cddbd v1.5.2PL0 Copyright (c) Steve Scherf et al.
# Submitted via: audiograbber 1.83.01
#
DISCID=920b430a
DTITLE=Immortal Rites - For tyrant's sake
DYEAR=2007
DGENRE=Death Metal
TTITLE0=For Tyrant's Sake
TTITLE1=Deamon Dawn
TTITLE2=Source Code @ Converter's Day
TTITLE3=Born in our own Funeral
TTITLE4=Killing Star Species
TTITLE5=Construcdead
TTITLE6=01101066601101
TTITLE7=Mindfield Evergreen
TTITLE8=Incapacity Awards
TTITLE9=The Harvest that dragged me down
EXTD=
EXTT0=
EXTT1=
EXTT2=
EXTT3=
EXTT4=
EXTT5=
EXTT6=
EXTT7=
EXTT8=
EXTT9=
PLAYORDER=
